<?xml version="1.0" standalone="no"?>
<!DOCTYPE svg PUBLIC "-//W3C//DTD SVG 20010904//EN"
 "http://www.w3.org/TR/2001/REC-SVG-20010904/DTD/svg10.dtd">
<svg version="1.0" xmlns="http://www.w3.org/2000/svg"
 width="1000.000000pt" height="500.000000pt" viewBox="0 0 1000.000000 500.000000"
 preserveAspectRatio="xMidYMid meet">

<g transform="translate(0.000000,500.000000) scale(0.100000,-0.100000)"
fill="#000000" stroke="none">
<path d="M4696 4391 c-22 -24 -17 -33 46 -83 34 -27 41 -29 54 -16 12 12 8 21
-33 67 l-48 53 -19 -21z"/>
<path d="M4343 4373 c-23 -4 -23 -5 -23 -199 l0 -194 30 0 30 0 0 75 c0 93 18
142 56 151 43 11 54 -14 54 -128 l0 -98 31 0 31 0 -4 121 c-3 113 -5 122 -27
140 -28 23 -66 24 -105 4 -15 -8 -30 -15 -32 -15 -2 0 -4 34 -4 75 0 41 -3 74
-7 74 -5 -1 -18 -4 -30 -6z"/>
<path d="M3910 4165 l0 -185 30 0 29 0 3 129 3 130 81 -127 c67 -104 86 -128
108 -130 l26 -3 0 185 0 186 -30 0 -29 0 -3 -122 -3 -121 -80 121 c-70 106
-83 122 -107 122 l-28 0 0 -185z"/>
<path d="M5226 4218 c-4 -73 -9 -157 -12 -185 l-6 -53 30 0 30 0 7 98 c3 53 7
103 8 110 1 7 23 -36 48 -95 39 -94 48 -108 71 -111 20 -2 28 3 36 25 6 15 26
65 45 110 l34 83 7 -61 c3 -34 6 -84 6 -110 0 -48 1 -49 31 -49 l31 0 -6 98
c-20 299 -16 273 -44 270 -23 -3 -32 -19 -83 -143 l-57 -140 -20 45 c-10 25
-36 89 -57 143 -35 89 -41 97 -65 97 l-27 0 -7 -132z"/>
<path d="M4730 4243 c-20 -10 -43 -33 -52 -53 -34 -67 -17 -174 31 -200 36
-19 86 -12 111 15 l23 25 12 -23 c8 -15 19 -21 35 -19 32 3 34 7 20 32 -7 13
-14 67 -17 122 -3 54 -9 101 -13 103 -4 3 -32 7 -61 10 -41 5 -62 2 -89 -12z
m100 -97 c0 -127 -83 -178 -104 -64 -10 57 9 115 42 126 51 17 62 6 62 -62z"/>
<path d="M5771 4243 c-61 -31 -88 -132 -57 -208 17 -40 42 -55 91 -55 25 0 43
7 59 25 l23 25 11 -25 c20 -45 70 -26 52 19 -5 15 -10 69 -10 121 0 52 -4 96
-8 99 -4 2 -35 7 -67 11 -46 4 -68 2 -94 -12z m105 -102 c-14 -141 -106 -170
-106 -33 0 82 28 115 88 104 24 -5 24 -6 18 -71z"/>
<path d="M6062 4136 c4 -131 15 -156 75 -156 38 0 89 23 96 42 2 7 8 -4 12
-25 5 -28 3 -44 -10 -63 -15 -23 -22 -26 -59 -21 -22 2 -48 6 -56 8 -9 3 -16
-4 -18 -18 -3 -18 4 -24 35 -32 52 -15 79 -14 113 4 47 24 50 39 43 214 l-6
161 -28 0 -27 0 -4 -91 c-3 -85 -5 -92 -31 -115 -33 -28 -40 -29 -61 -8 -12
12 -16 38 -16 115 l0 99 -31 0 -31 0 4 -114z"/>
<path d="M3440 4155 c0 -26 0 -26 78 -23 69 3 77 5 77 23 0 18 -8 20 -77 23
-78 3 -78 3 -78 -23z"/>
<path d="M6410 4155 c0 -24 2 -25 75 -25 73 0 75 1 75 25 0 24 -2 25 -75 25
-73 0 -75 -1 -75 -25z"/>
<path d="M3210 3590 c0 -16 76 -84 151 -136 56 -39 72 -45 107 -42 l41 3 -62
92 -62 93 -87 0 c-54 0 -88 -4 -88 -10z"/>
<path d="M8188 3573 c-9 -16 -39 -56 -67 -91 -28 -34 -51 -64 -51 -67 0 -3 19
-5 43 -5 36 0 51 7 104 51 l62 51 63 -51 c53 -44 69 -51 105 -51 24 0 43 2 43
6 0 3 -24 35 -54 72 -29 37 -59 77 -65 90 -11 20 -19 22 -89 22 -74 0 -78 -1
-94 -27z"/>
<path d="M2830 3403 c-57 -21 -67 -83 -20 -128 52 -50 37 -98 -39 -124 -70
-23 -71 -22 -71 89 l0 100 -95 0 -95 0 0 -30 c0 -27 3 -30 33 -30 18 0 42 -6
53 -14 18 -13 19 -31 22 -268 4 -296 -2 -342 -53 -387 -54 -47 -159 -53 -228
-13 -15 9 -36 35 -47 57 -18 38 -20 63 -20 313 0 259 1 273 20 292 12 12 33
20 55 20 32 0 35 2 35 30 l0 30 -205 0 -205 0 0 -30 c0 -28 2 -30 38 -30 69 0
69 0 74 -315 5 -308 8 -328 70 -392 56 -58 117 -77 248 -78 129 0 174 11 226
58 66 57 68 69 74 311 l5 220 50 11 c67 15 106 37 143 79 75 85 59 210 -28
229 -14 3 -32 3 -40 0z"/>
<path d="M3830 3401 c-31 -8 -52 -48 -44 -81 3 -14 19 -39 36 -56 36 -38 32
-66 -15 -94 l-30 -19 -36 52 c-69 99 -173 147 -317 147 -198 0 -322 -87 -376
-263 -28 -93 -22 -282 11 -369 31 -80 104 -157 183 -194 57 -26 73 -29 173
-29 137 0 196 19 273 89 97 89 140 213 128 374 -3 48 -9 102 -12 120 -4 21 -2
32 6 32 6 0 32 14 57 31 100 69 113 226 22 258 -18 6 -32 11 -33 10 -1 -1 -12
-4 -26 -8z m-333 -140 c92 -42 127 -150 122 -371 -4 -141 -5 -148 -37 -212
-41 -83 -78 -109 -156 -110 -140 -1 -200 105 -200 352 0 200 34 292 124 338
54 27 92 28 147 3z"/>
<path d="M5241 3334 c-123 -33 -200 -97 -255 -213 -30 -64 -31 -70 -31 -201 0
-118 3 -142 23 -192 30 -75 108 -160 175 -191 129 -61 311 -63 464 -5 l53 19
0 124 c0 134 7 155 56 155 20 0 24 5 24 30 l0 30 -186 0 -185 0 3 -27 c2 -23
8 -29 35 -31 53 -5 63 -31 63 -154 l0 -108 -67 0 c-97 0 -141 15 -189 64 -49
51 -71 118 -80 236 -12 160 29 311 97 363 68 51 171 59 229 17 27 -19 43 -49
55 -104 6 -27 8 -28 47 -23 83 11 131 81 91 134 -30 41 -63 61 -128 78 -74 19
-222 18 -294 -1z"/>
<path d="M370 3224 l0 -115 38 3 c37 3 37 3 44 57 9 78 30 95 124 99 l75 4 -3
-342 c-3 -325 -4 -342 -22 -356 -11 -8 -35 -14 -53 -14 -30 0 -33 -3 -33 -30
l0 -30 200 0 200 0 0 30 c0 27 -3 30 -33 30 -18 0 -42 6 -53 14 -18 14 -19 31
-22 356 l-3 342 76 -4 c95 -4 114 -20 122 -101 l6 -57 38 0 39 0 0 115 0 115
-370 0 -370 0 0 -116z"/>
<path d="M1160 3311 c0 -28 3 -31 33 -31 18 0 42 -6 53 -14 18 -14 19 -29 19
-346 0 -317 -1 -332 -19 -346 -11 -8 -35 -14 -53 -14 -30 0 -33 -3 -33 -30 l0
-30 200 0 200 0 0 30 c0 28 -3 30 -35 30 -22 0 -43 8 -55 20 -18 18 -20 33
-20 155 l0 135 38 0 39 0 78 -145 c45 -84 92 -158 111 -174 36 -32 106 -51
189 -51 54 0 55 1 55 28 0 23 -6 30 -35 41 -19 6 -45 26 -57 44 -22 30 -168
276 -168 282 0 2 19 15 43 30 58 38 88 78 104 139 31 119 -25 219 -146 257
-22 7 -136 14 -288 16 l-253 5 0 -31z m451 -66 c80 -72 60 -271 -31 -302 -19
-7 -56 -12 -82 -12 l-48 -1 0 171 0 171 69 -4 c51 -3 75 -9 92 -23z"/>
<path d="M3990 3310 c0 -27 3 -30 33 -30 18 0 42 -6 53 -14 18 -14 19 -31 22
-313 2 -164 1 -312 -3 -330 -8 -44 -30 -63 -71 -63 -31 0 -34 -3 -34 -30 l0
-30 150 0 150 0 0 30 c0 27 -3 30 -33 30 -18 0 -42 6 -53 14 -18 14 -19 30
-21 293 -3 273 -3 278 16 256 10 -12 114 -157 231 -323 l213 -300 53 0 54 0 0
368 c0 417 -1 412 71 412 37 0 39 2 39 30 l0 30 -155 0 -155 0 0 -30 c0 -28 2
-30 38 -30 72 0 73 -5 70 -277 l-3 -241 -204 289 -204 289 -129 0 -128 0 0
-30z"/>
<path d="M6130 3311 c0 -25 5 -30 33 -35 41 -8 59 -27 132 -140 31 -49 76
-119 100 -156 l43 -67 -76 -99 c-165 -216 -180 -233 -222 -245 -34 -11 -40
-16 -40 -41 l0 -28 150 0 150 0 0 30 c0 23 -5 30 -19 30 -10 0 -29 9 -42 19
-23 19 -23 20 -7 54 21 45 138 202 149 202 11 0 149 -214 149 -231 0 -16 -39
-44 -62 -44 -13 0 -18 -8 -18 -30 l0 -30 195 0 195 0 0 30 c0 20 -5 30 -15 30
-45 0 -77 35 -189 210 -64 99 -116 184 -116 190 0 17 194 274 225 298 15 12
36 22 46 22 14 0 19 7 19 30 l0 30 -135 0 -135 0 0 -29 c0 -23 5 -30 29 -34
57 -12 46 -52 -48 -181 l-50 -69 -60 92 c-33 50 -63 101 -67 113 -8 25 17 48
53 48 19 0 23 5 23 30 l0 30 -195 0 -195 0 0 -29z"/>
<path d="M6970 3310 c0 -28 2 -30 38 -30 70 0 70 0 74 -320 3 -283 3 -286 28
-335 50 -97 165 -143 334 -133 132 9 216 63 245 157 7 25 11 137 11 315 0 263
1 277 20 296 12 12 33 20 55 20 32 0 35 2 35 30 l0 30 -150 0 -150 0 0 -30 c0
-27 3 -30 34 -30 66 0 66 0 66 -313 0 -248 -2 -286 -18 -317 -51 -104 -252
-104 -304 0 -16 31 -18 68 -18 316 0 316 0 314 73 314 34 0 37 2 37 30 l0 30
-205 0 -205 0 0 -30z"/>
<path d="M8192 3313 c-6 -15 -68 -181 -137 -368 -128 -349 -146 -385 -196
-385 -14 0 -19 -7 -19 -30 l0 -30 150 0 150 0 0 30 c0 27 -3 30 -33 30 -22 0
-41 8 -53 21 -17 19 -18 23 -2 82 9 34 21 74 27 90 l11 28 142 -3 143 -3 30
-88 30 -89 -24 -19 c-13 -10 -36 -19 -52 -19 -26 0 -29 -4 -29 -30 l0 -30 195
0 195 0 0 29 c0 25 -5 30 -35 35 -21 4 -41 17 -51 31 -9 14 -73 186 -143 382
l-127 358 -81 3 c-80 3 -80 3 -91 -25z m58 -127 c0 -12 79 -276 96 -320 5 -14
-9 -16 -110 -16 -64 0 -116 3 -116 8 0 4 26 82 57 174 52 151 73 195 73 154z"/>
<path d="M8750 3310 c0 -28 2 -30 38 -30 73 0 72 4 72 -358 0 -309 -1 -323
-20 -342 -12 -12 -33 -20 -55 -20 -32 0 -35 -2 -35 -30 l0 -30 155 0 155 0 0
30 c0 28 -2 30 -38 30 -72 0 -73 1 -70 308 l3 272 225 -320 225 -319 58 -1 57
0 0 374 c0 416 -2 406 66 406 31 0 34 2 34 30 l0 30 -150 0 -150 0 0 -30 c0
-28 3 -30 35 -30 22 0 43 -8 55 -20 19 -19 20 -33 20 -261 0 -132 -3 -238 -7
-235 -5 2 -98 133 -208 290 l-200 285 -132 0 -133 1 0 -30z"/>
</g>
</svg>
