<?xml version="1.0" standalone="no"?>
<!DOCTYPE svg PUBLIC "-//W3C//DTD SVG 20010904//EN"
 "http://www.w3.org/TR/2001/REC-SVG-20010904/DTD/svg10.dtd">
<svg version="1.0" xmlns="http://www.w3.org/2000/svg"
 width="500.000000pt" height="500.000000pt" viewBox="0 0 500.000000 500.000000"
 preserveAspectRatio="xMidYMid meet">

<g transform="translate(0.000000,500.000000) scale(0.100000,-0.100000)"
fill="#000000" stroke="none">
<path d="M1586 3385 c32 -42 75 -75 99 -75 19 0 19 0 -20 62 -27 43 -34 47
-68 48 l-38 0 27 -35z"/>
<path d="M4173 3364 c-32 -19 -43 -32 -43 -50 l0 -25 45 27 45 26 45 -26 45
-27 0 25 c0 18 -11 31 -44 50 -25 14 -46 26 -48 26 -2 -1 -22 -12 -45 -26z"/>
<path d="M1347 3293 c-4 -3 -7 -18 -7 -33 0 -24 -26 -60 -43 -60 -4 0 -7 16
-7 35 0 32 -2 35 -30 35 l-30 0 0 -176 c0 -193 -9 -231 -56 -253 -58 -26 -160
-6 -180 36 -5 10 -11 101 -14 203 l-5 185 -28 3 -28 3 3 -198 c3 -186 4 -200
25 -229 48 -67 175 -91 258 -48 67 34 85 83 85 234 l0 126 35 13 c39 14 72 55
81 100 6 29 5 31 -23 31 -16 0 -33 -3 -36 -7z"/>
<path d="M1867 3293 c-4 -3 -7 -18 -7 -31 0 -14 -7 -33 -16 -43 -15 -16 -18
-16 -61 14 -42 30 -50 32 -132 32 -79 0 -92 -3 -129 -28 -58 -38 -84 -93 -90
-190 -6 -102 10 -159 62 -213 52 -54 124 -72 212 -54 69 14 132 72 152 136 15
52 16 171 0 214 -10 31 -9 34 17 53 27 20 55 72 55 102 0 15 -50 22 -63 8z
m-141 -89 c102 -48 111 -287 15 -351 -44 -30 -132 -32 -177 -4 -75 46 -98 217
-41 303 42 63 132 86 203 52z"/>
<path d="M2588 3246 c-105 -38 -158 -117 -158 -235 1 -95 51 -173 135 -212 50
-23 142 -25 193 -3 77 32 133 112 136 193 l1 46 -125 0 c-122 0 -125 -1 -128
-22 -3 -22 -1 -23 92 -23 107 0 110 -2 80 -66 -35 -74 -120 -110 -201 -84
-103 33 -152 159 -104 266 25 56 71 87 138 92 63 5 104 -10 138 -49 18 -22 32
-29 60 -29 l36 0 -16 29 c-45 88 -175 133 -277 97z"/>
<path d="M100 3225 c0 -24 2 -25 65 -25 l65 0 0 -210 0 -210 30 0 30 0 0 210
0 209 63 3 c56 3 62 5 65 26 l3 22 -160 0 -161 0 0 -25z"/>
<path d="M490 3015 l0 -235 30 0 30 0 0 96 0 95 42 -3 c42 -3 43 -4 96 -95 52
-89 55 -93 89 -93 42 0 42 -3 -25 109 l-51 85 37 21 c93 51 94 188 2 237 -27
14 -57 18 -142 18 l-108 0 0 -235z m223 171 c30 -23 40 -69 23 -109 -17 -42
-63 -61 -136 -55 l-45 3 -3 88 -3 87 73 0 c45 -1 80 -6 91 -14z"/>
<path d="M1970 3015 l0 -235 30 0 30 0 2 188 3 187 124 -187 c120 -183 124
-188 157 -188 l34 0 0 235 0 235 -35 0 -35 0 0 -182 0 -183 -122 183 c-117
176 -122 182 -155 182 l-33 0 0 -235z"/>
<path d="M3206 3145 c36 -59 68 -113 70 -120 3 -7 -23 -60 -58 -116 -35 -57
-68 -110 -72 -116 -5 -10 2 -13 28 -13 33 0 37 4 86 91 29 50 56 87 60 82 5
-4 31 -44 58 -88 45 -74 52 -80 86 -83 l36 -3 -70 114 c-38 62 -70 119 -70
125 0 6 29 58 65 115 36 58 65 108 65 111 0 4 -15 6 -32 4 -29 -3 -38 -12 -84
-91 l-52 -89 -54 89 c-51 82 -57 88 -92 91 l-36 3 66 -106z"/>
<path d="M3580 3086 c0 -207 14 -252 94 -293 42 -22 156 -14 193 13 61 45 68
72 71 267 l4 177 -31 0 -31 0 0 -152 c0 -84 -5 -170 -11 -191 -18 -65 -103
-97 -169 -64 -50 25 -60 66 -60 245 l0 162 -30 0 -30 0 0 -164z"/>
<path d="M4098 3015 l-85 -235 32 0 c30 0 34 4 51 53 l19 52 104 0 103 0 20
-52 c17 -47 23 -53 49 -53 16 0 29 3 29 8 0 4 -37 109 -82 235 l-82 227 -36 0
-37 0 -85 -235z m161 48 c19 -54 36 -104 39 -110 3 -10 -16 -13 -77 -13 -45 0
-81 3 -81 7 0 16 73 213 79 213 4 0 22 -44 40 -97z"/>
<path d="M4500 3015 l0 -235 30 0 30 0 2 187 3 187 123 -187 c114 -173 125
-187 152 -187 l30 0 0 235 0 235 -30 0 -30 0 -2 -182 -3 -181 -120 181 c-114
173 -122 182 -152 182 l-33 0 0 -235z"/>
<path d="M4455 2549 c-49 -4 -772 -10 -1605 -14 -1463 -6 -1928 -14 -1979 -33
l-25 -9 26 -6 c81 -21 524 -26 2188 -28 1921 -2 1897 -3 1919 40 12 22 3 37
-32 50 -32 12 -347 12 -492 0z m425 -33 c0 -19 -73 -26 -272 -26 -140 0 -168
2 -168 14 0 19 36 22 263 24 143 2 177 -1 177 -12z"/>
<path d="M3040 2327 c0 -16 42 -57 58 -57 7 0 3 14 -10 35 -23 35 -48 46 -48
22z"/>
<path d="M2170 2081 c0 -126 2 -151 15 -151 12 0 15 23 17 123 l3 122 85 -122
c116 -166 120 -165 120 27 0 127 -2 150 -15 150 -12 0 -15 -20 -15 -116 0 -68
-4 -114 -9 -112 -6 2 -45 52 -88 113 -44 60 -87 111 -96 113 -15 3 -17 -11
-17 -147z"/>
<path d="M2580 2080 c0 -127 2 -150 15 -150 12 0 15 14 15 70 l0 70 85 0 85 0
0 -70 c0 -56 3 -70 15 -70 13 0 15 23 15 150 0 127 -2 150 -15 150 -12 0 -15
-14 -15 -65 l0 -65 -85 0 -85 0 0 65 c0 51 -3 65 -15 65 -13 0 -15 -23 -15
-150z"/>
<path d="M3025 2093 c-31 -76 -60 -144 -62 -150 -3 -7 2 -13 12 -13 10 0 23
15 32 40 l16 41 75 -3 75 -3 12 -35 c7 -20 20 -37 30 -39 14 -2 16 1 11 15
-63 173 -113 284 -127 284 -11 0 -34 -41 -74 -137z m106 17 l27 -70 -60 0
c-53 0 -59 2 -54 18 33 88 51 130 55 126 2 -2 17 -36 32 -74z"/>
<path d="M3589 2218 c-1 -7 -4 -75 -8 -151 -5 -126 -5 -137 12 -137 15 0 17
12 17 110 0 61 4 110 8 110 5 0 30 -50 57 -110 34 -80 52 -110 64 -108 8 2 37
51 66 116 l50 112 6 -57 c4 -32 7 -84 8 -115 1 -44 5 -58 16 -58 17 0 18 19 8
188 -8 153 -21 151 -93 -13 -30 -68 -58 -125 -61 -125 -3 0 -30 55 -60 122
-35 80 -61 124 -72 126 -9 2 -17 -2 -18 -10z"/>
<path d="M4166 2221 c-3 -5 -32 -72 -65 -150 -49 -118 -56 -141 -41 -141 11 0
23 15 33 40 l15 40 75 0 74 0 13 -40 c9 -26 19 -40 31 -40 15 0 8 23 -43 150
-55 138 -75 168 -92 141z m71 -178 c-3 -2 -30 -3 -60 -1 l-55 3 31 73 31 74
28 -72 c16 -40 27 -74 25 -77z"/>
<path d="M4475 2148 c53 -80 55 -85 55 -150 0 -54 3 -68 15 -68 12 0 15 14 15
68 0 64 2 71 50 142 54 81 57 90 36 90 -8 0 -33 -29 -55 -65 -23 -36 -43 -65
-45 -65 -2 0 -23 29 -46 65 -28 42 -49 65 -61 65 -16 0 -10 -14 36 -82z"/>
</g>
</svg>
