<?xml version="1.0" standalone="no"?>
<!DOCTYPE svg PUBLIC "-//W3C//DTD SVG 20010904//EN"
 "http://www.w3.org/TR/2001/REC-SVG-20010904/DTD/svg10.dtd">
<svg version="1.0" xmlns="http://www.w3.org/2000/svg"
 width="1120.000000pt" height="1120.000000pt" viewBox="0 0 1120.000000 1120.000000"
 preserveAspectRatio="xMidYMid meet">

<g transform="translate(0.000000,1120.000000) scale(0.100000,-0.100000)"
fill="#000000" stroke="none">
<path d="M5910 8900 c-44 -44 -88 -161 -125 -332 -9 -43 -18 -78 -20 -78 -1 0
-22 7 -46 16 -24 9 -93 26 -154 39 -93 21 -132 24 -255 21 -125 -3 -155 -7
-215 -29 -167 -60 -262 -118 -361 -219 -132 -135 -206 -278 -251 -488 -27
-126 -24 -424 5 -575 45 -235 110 -452 215 -723 32 -83 43 -102 56 -97 9 4 29
12 44 17 20 8 26 15 22 27 -54 136 -154 421 -175 496 -115 416 -128 689 -45
939 50 151 95 226 205 337 83 83 108 102 190 142 122 60 213 80 360 79 169 0
390 -52 390 -91 0 -9 -4 -43 -10 -76 -33 -209 -79 -746 -105 -1220 -8 -154
-17 -326 -20 -382 l-6 -103 68 0 c37 -1 115 -7 173 -14 58 -7 106 -13 107 -12
2 2 43 776 53 1021 5 132 10 333 10 448 0 114 3 207 7 207 10 0 142 -101 199
-153 122 -110 263 -304 341 -467 86 -180 142 -396 150 -576 12 -251 -48 -478
-149 -569 -42 -38 -39 -45 7 -17 87 54 168 181 202 317 27 111 23 335 -10 495
-53 255 -131 444 -263 631 -117 167 -216 263 -434 422 l-45 33 -2 84 c-3 118
-22 327 -34 375 -21 84 -46 108 -79 75z m18 -284 c-2 -96 -5 -177 -8 -180 -3
-3 -24 1 -45 9 -38 13 -40 15 -37 52 5 66 43 256 58 293 27 63 36 15 32 -174z
m-18 -332 c0 -83 -48 -497 -71 -613 -23 -115 -53 -136 -65 -45 -10 82 21 614
42 716 l5 27 45 -21 c42 -21 44 -24 44 -64z"/>
<path d="M5355 6514 c-164 -17 -299 -47 -535 -120 -169 -52 -251 -80 -300
-101 -158 -67 -332 -188 -300 -208 7 -4 15 -4 19 1 7 11 61 42 156 91 39 19
73 40 76 45 3 5 10 10 15 10 5 0 19 4 32 9 13 5 27 9 31 9 4 0 18 9 31 20 13
11 32 20 42 20 11 0 27 4 36 9 9 5 31 11 47 15 60 11 74 17 68 34 -5 14 -3 13
9 -2 12 -16 16 -16 29 -4 8 8 20 13 27 10 7 -2 25 0 40 6 73 27 379 99 448
106 27 3 81 10 120 15 39 6 104 8 145 6 123 -8 219 -14 329 -20 100 -6 120 -9
216 -34 23 -6 49 -8 58 -5 9 3 16 2 16 -4 0 -5 12 -12 28 -15 87 -17 209 -64
344 -132 139 -70 172 -92 286 -182 52 -41 96 -72 99 -69 9 9 -15 33 -116 117
-51 43 -115 89 -140 102 -25 12 -57 30 -71 40 -68 45 -349 148 -494 182 -223
52 -565 73 -791 49z"/>
<path d="M7233 6028 c-83 -75 -166 -137 -344 -256 l-137 -91 -6 107 c-8 126
-27 201 -60 239 -21 25 -31 28 -80 27 -45 0 -71 -8 -138 -42 -102 -53 -208
-135 -208 -162 0 -11 1 -20 3 -20 2 0 28 24 58 54 68 65 170 118 231 118 105
2 120 -23 126 -222 l4 -145 -94 -70 c-199 -150 -404 -343 -513 -485 -52 -69
-68 -97 -56 -104 19 -12 43 9 97 88 93 133 387 413 537 510 l27 18 0 -168 c0
-180 9 -235 43 -273 47 -50 107 -48 182 8 35 26 58 52 126 143 16 21 16 21 12
-9 -15 -102 98 -105 170 -5 l32 45 3 -47 c2 -33 9 -50 25 -61 34 -24 55 -18
107 31 47 44 50 45 50 23 0 -34 27 -69 53 -69 34 0 84 35 114 82 l28 42 3 -45
c6 -76 52 -101 107 -57 l28 21 -12 -22 c-12 -21 -11 -22 20 -19 28 3 38 13 85
88 73 118 194 230 194 179 0 -6 -18 -47 -40 -91 -22 -44 -40 -92 -40 -107 0
-70 70 -95 130 -45 29 25 120 167 120 188 0 16 -16 -5 -46 -59 -56 -103 -110
-153 -137 -126 -17 17 6 91 69 215 l55 109 -32 -7 c-46 -9 -126 -60 -188 -119
l-53 -52 22 45 c13 25 36 64 51 87 16 23 29 44 29 47 0 3 -13 6 -29 6 -35 0
-46 -15 -116 -145 -84 -157 -136 -214 -160 -175 -10 16 24 120 61 186 30 55
32 62 16 66 -36 10 -60 -12 -108 -97 -27 -48 -66 -105 -86 -126 -40 -41 -81
-51 -92 -23 -10 25 13 93 51 153 83 132 181 196 215 141 15 -23 28 -26 28 -6
0 48 -103 60 -178 22 -66 -33 -108 -88 -166 -216 -39 -87 -113 -139 -130 -94
-12 31 46 181 112 287 l23 38 -38 -3 c-36 -3 -40 -6 -76 -78 -73 -142 -127
-225 -168 -258 -26 -20 -49 -4 -49 33 0 39 85 226 124 273 l28 32 -40 0 c-49
0 -52 -4 -137 -162 -96 -181 -150 -238 -228 -240 -72 -2 -97 77 -97 307 l0
154 90 63 c49 35 158 110 241 168 164 113 249 183 249 206 0 28 -31 13 -97
-48z"/>
<path d="M3683 5999 c-143 -24 -253 -136 -253 -255 0 -110 95 -195 200 -181
76 10 160 92 147 145 -3 15 -5 15 -12 -3 -15 -37 -56 -85 -87 -101 -22 -11
-48 -15 -86 -12 -47 4 -60 10 -84 37 -35 40 -37 87 -4 156 26 57 64 93 140
133 48 25 59 27 181 27 101 -1 150 -6 223 -24 50 -12 92 -27 92 -32 0 -20
-162 -355 -217 -447 -124 -213 -274 -301 -488 -290 -169 9 -286 109 -302 258
-8 77 14 136 68 184 59 54 51 76 -12 33 -53 -36 -82 -97 -87 -188 -9 -152 51
-236 213 -299 82 -33 277 -34 372 -3 177 58 266 170 368 463 37 107 103 259
120 278 2 2 39 -8 82 -21 43 -14 115 -31 158 -37 69 -11 85 -10 118 3 26 11
37 22 37 36 0 26 -5 26 -30 1 -24 -24 -61 -25 -167 -5 -97 18 -174 46 -170 60
2 5 17 17 35 25 17 8 32 21 32 28 0 22 -29 13 -69 -23 l-38 -35 -74 25 c-173
59 -309 81 -406 64z"/>
<path d="M4201 5668 c-5 -13 -21 -63 -36 -113 -28 -92 -59 -163 -110 -250 -23
-40 -25 -47 -8 -32 24 21 72 108 103 187 25 64 31 69 73 61 45 -9 45 -34 -3
-126 -23 -45 -40 -94 -40 -112 0 -35 29 -73 56 -73 25 0 67 29 97 68 l27 35 0
-36 c0 -45 34 -72 78 -62 28 6 83 55 114 103 14 21 15 20 14 -24 -1 -37 4 -49
23 -65 41 -33 97 -7 142 66 l19 30 0 -33 c0 -38 37 -82 70 -82 11 0 37 7 57
15 29 12 43 13 70 4 32 -10 56 -8 100 8 16 6 16 5 4 -10 -12 -15 -10 -17 21
-17 32 0 37 4 78 78 66 117 200 242 200 187 0 -7 -16 -45 -36 -83 -60 -115
-49 -182 31 -182 32 0 74 32 107 80 16 24 17 24 17 3 1 -31 48 -83 75 -83 38
0 88 42 139 115 26 38 47 64 48 59 4 -43 -15 -194 -25 -194 0 0 -45 -15 -98
-34 -193 -68 -278 -131 -278 -205 0 -55 27 -76 99 -75 77 0 123 25 208 110 51
51 81 93 105 142 20 44 43 77 60 87 33 19 64 60 107 139 44 81 33 81 -15 0
-35 -60 -90 -121 -101 -111 -2 3 1 35 8 71 13 76 4 176 -15 176 -23 0 -44 -25
-72 -85 -38 -78 -123 -168 -155 -163 -60 8 -44 99 37 208 79 108 170 152 196
95 11 -25 23 -31 32 -17 8 14 -8 31 -47 47 -108 45 -209 -23 -298 -201 -24
-47 -58 -99 -76 -115 -93 -81 -88 13 13 212 35 70 41 89 28 89 -30 0 -133 -62
-196 -119 l-62 -56 34 60 c18 33 42 72 52 87 23 34 23 38 -6 38 -33 0 -69 -45
-134 -169 -64 -120 -99 -161 -139 -161 -51 0 -55 17 -17 67 52 68 66 101 71
168 7 76 -13 107 -68 107 -76 0 -153 -71 -218 -199 -21 -44 -53 -93 -69 -111
-60 -64 -101 -24 -67 66 25 66 94 203 113 225 16 18 14 18 -23 15 -39 -3 -41
-4 -90 -99 -65 -122 -107 -187 -145 -224 -38 -37 -66 -26 -63 25 1 33 86 219
124 272 l21 29 -42 -3 -42 -3 -67 -131 c-77 -149 -115 -204 -143 -204 -41 0
-33 46 33 185 62 132 64 125 -28 125 -71 0 -76 1 -57 15 32 22 49 71 36 100
-14 31 -40 32 -51 3z m814 -125 c23 -22 13 -96 -22 -168 -25 -51 -28 -53 -40
-35 -19 27 -41 25 -55 -5 -8 -19 -8 -31 0 -50 10 -21 8 -27 -11 -40 -27 -19
-51 -19 -67 0 -41 50 64 271 145 305 29 12 32 12 50 -7z m675 -388 c0 -20 -57
-109 -99 -157 -100 -110 -241 -146 -241 -60 0 65 58 113 216 177 110 45 124
49 124 40z"/>
<path d="M5650 4660 c0 -136 2 -160 15 -160 13 0 15 24 15 160 0 136 -2 160
-15 160 -13 0 -15 -24 -15 -160z"/>
<path d="M5168 4782 c-50 -4 -49 -22 2 -22 l39 0 3 -127 c3 -113 5 -128 21
-131 16 -3 17 4 11 81 -4 46 -4 105 0 130 7 44 8 46 44 49 20 2 35 7 32 13 -5
9 -80 13 -152 7z"/>
<path d="M5557 4763 c-14 -13 -6 -33 13 -33 13 0 20 7 20 20 0 19 -20 27 -33
13z"/>
<path d="M5373 4694 c-15 -6 -18 -44 -4 -44 5 0 14 7 21 15 18 22 57 19 70 -6
17 -30 5 -49 -29 -49 -53 0 -81 -19 -81 -55 0 -45 17 -55 88 -53 l62 2 0 70
c0 98 -13 120 -70 123 -25 1 -51 0 -57 -3z m97 -128 c0 -31 -22 -48 -57 -44
-58 7 -32 68 29 68 23 0 28 -4 28 -24z"/>
<path d="M5560 4600 c0 -82 3 -100 15 -100 12 0 15 18 15 100 0 82 -3 100 -15
100 -12 0 -15 -18 -15 -100z"/>
<path d="M5769 4687 c-46 -36 -52 -110 -13 -157 24 -27 32 -31 72 -28 56 4 87
38 87 98 0 59 -31 94 -86 97 -24 2 -51 -3 -60 -10z m97 -28 c40 -44 12 -139
-40 -139 -27 0 -40 9 -55 37 -41 78 39 164 95 102z"/>
<path d="M5964 4684 c3 -9 6 -54 6 -100 0 -69 3 -84 16 -84 13 0 14 10 9 68
-7 75 5 104 45 107 13 1 26 7 28 13 5 15 -44 16 -54 1 -4 -8 -9 -8 -17 0 -17
17 -40 13 -33 -5z"/>
<path d="M4937 4624 c-17 -17 -4 -25 36 -22 23 2 42 8 42 13 0 12 -67 19 -78
9z"/>
<path d="M6197 4624 c-17 -17 -4 -25 36 -22 23 2 42 8 42 13 0 12 -67 19 -78
9z"/>
<path d="M5398 4365 c-2 -2 -46 -6 -100 -9 -153 -10 -355 -56 -483 -110 -44
-18 -83 -34 -87 -35 -23 -5 -140 -59 -207 -95 -50 -28 -182 -130 -225 -175
-58 -60 -17 -40 88 43 79 62 143 103 239 150 134 65 161 77 187 82 8 2 23 7
35 12 65 31 281 78 400 87 59 4 272 16 350 19 92 4 456 -61 589 -105 34 -11
79 -22 101 -26 22 -3 45 -9 50 -13 11 -8 85 -25 98 -22 4 1 7 -3 7 -8 0 -6 14
-10 30 -10 18 0 33 -6 36 -15 4 -8 13 -15 20 -15 8 0 26 -7 39 -16 13 -9 29
-13 35 -9 5 3 10 2 10 -3 0 -5 33 -26 73 -46 89 -44 130 -68 139 -81 5 -6 11
-6 18 1 31 31 -210 172 -395 233 -263 86 -501 145 -650 161 -88 9 -389 13
-397 5z"/>
<path d="M5561 3083 c1 -665 3 -1199 5 -1188 10 53 177 1875 212 2298 l8 97
-113 0 -113 0 1 -1207z"/>
<path d="M5063 4223 c-12 -2 -46 -34 -77 -71 -65 -79 -168 -181 -248 -245
-116 -93 -326 -174 -389 -150 -31 12 -38 3 -14 -17 25 -21 140 -7 230 29 44
17 116 54 159 83 134 87 427 387 369 377 -5 -1 -18 -4 -30 -6z"/>
</g>
</svg>
