<?xml version="1.0" standalone="no"?>
<!DOCTYPE svg PUBLIC "-//W3C//DTD SVG 20010904//EN"
 "http://www.w3.org/TR/2001/REC-SVG-20010904/DTD/svg10.dtd">
<svg version="1.0" xmlns="http://www.w3.org/2000/svg"
 width="100.000000pt" height="50.000000pt" viewBox="0 0 100.000000 50.000000"
 preserveAspectRatio="xMidYMid meet">

<g transform="translate(0.000000,50.000000) scale(0.100000,-0.100000)"
fill="#000000" stroke="none">
<path d="M836 422 c-3 -5 1 -9 9 -9 8 0 12 4 9 9 -3 4 -7 8 -9 8 -2 0 -6 -4
-9 -8z"/>
<path d="M263 402 c-6 -4 -13 -23 -15 -42 -2 -27 -8 -36 -25 -38 -21 -3 -23 1
-23 37 0 23 -4 41 -10 41 -16 0 -12 -67 6 -84 8 -9 19 -16 24 -16 16 0 40 32
40 54 0 12 5 27 12 34 14 14 7 24 -9 14z"/>
<path d="M370 404 c0 -5 -17 -9 -37 -9 -36 0 -38 -1 -41 -37 -2 -29 1 -39 17
-48 34 -18 58 3 63 52 3 24 3 45 1 47 -1 2 -3 0 -3 -5z m-15 -49 c0 -25 -4
-30 -25 -30 -16 0 -26 6 -28 18 -6 30 6 49 30 45 18 -2 23 -9 23 -33z"/>
<path d="M33 393 c12 -3 17 -16 19 -46 l1 -42 4 40 c3 22 10 43 16 47 7 4 -4
7 -23 7 -19 -1 -27 -3 -17 -6z"/>
<path d="M101 353 c1 -26 3 -40 6 -30 5 21 22 22 29 2 4 -8 10 -15 15 -15 6 0
5 9 -1 20 -8 14 -8 20 0 20 6 0 10 10 8 23 -2 16 -11 23 -30 25 -27 3 -28 2
-27 -45z m47 20 c2 -8 -5 -13 -17 -13 -12 0 -21 6 -21 16 0 18 31 15 38 -3z"/>
<path d="M390 356 c0 -50 19 -64 22 -16 0 17 1 35 2 42 1 6 -5 13 -11 16 -9 2
-13 -10 -13 -42z"/>
<path d="M462 373 c-2 -37 -9 -41 -28 -15 -7 9 -13 13 -13 7 -1 -15 37 -60 44
-53 3 3 5 26 2 49 -3 35 -4 37 -5 12z"/>
<path d="M501 386 c-7 -8 -11 -27 -9 -43 2 -22 9 -29 31 -31 31 -4 57 12 57
34 0 9 -10 14 -27 13 -17 -1 -21 -3 -10 -6 29 -8 21 -35 -10 -31 -22 2 -29 9
-31 31 -4 33 21 46 50 28 16 -10 19 -10 16 1 -6 19 -52 22 -67 4z"/>
<path d="M641 377 c10 -22 10 -33 1 -48 -7 -10 -8 -19 -3 -19 5 0 12 7 15 17
6 14 8 14 21 -3 16 -21 20 -8 5 16 -6 10 -4 22 6 37 8 13 10 23 5 23 -5 0 -12
-7 -15 -16 -6 -15 -8 -15 -27 2 -21 19 -21 18 -8 -9z"/>
<path d="M722 363 c-2 -33 2 -45 17 -53 28 -14 51 12 51 58 0 28 -3 33 -10 22
-5 -8 -10 -27 -10 -42 0 -21 -5 -28 -19 -28 -16 0 -21 8 -24 43 l-4 42 -1 -42z"/>
<path d="M824 364 c-8 -20 -13 -41 -10 -47 3 -9 5 -8 5 1 1 6 9 12 19 12 10 0
24 -6 31 -12 11 -11 12 -8 6 12 -14 45 -24 70 -30 70 -3 0 -13 -16 -21 -36z
m24 -23 c-15 -5 -19 4 -11 24 6 18 7 18 13 -1 4 -10 3 -21 -2 -23z"/>
<path d="M902 353 c1 -41 2 -43 5 -13 l5 35 29 -35 28 -35 -1 50 c-1 45 -1 47
-7 15 l-6 -35 -20 33 c-11 17 -23 32 -27 32 -4 0 -7 -21 -6 -47z"/>
<path d="M210 250 c-14 -4 146 -8 378 -9 221 -1 402 3 402 7 0 11 -748 13
-780 2z"/>
<path d="M430 165 c0 -14 2 -25 4 -25 2 0 6 11 8 25 3 14 1 25 -3 25 -5 0 -9
-11 -9 -25z"/>
<path d="M720 181 c0 -6 4 -13 10 -16 6 -3 7 1 4 9 -7 18 -14 21 -14 7z"/>
<path d="M767 183 c-3 -5 -1 -17 4 -28 7 -17 8 -17 8 8 1 27 -4 34 -12 20z"/>
<path d="M897 173 c3 -7 6 -13 8 -13 1 0 7 6 13 13 8 10 6 13 -7 13 -11 0 -17
-6 -14 -13z"/>
<path d="M600 159 c0 -5 9 -9 20 -9 11 0 20 2 20 4 0 2 -9 6 -20 9 -11 3 -20
1 -20 -4z"/>
<path d="M816 153 c-6 -14 -5 -15 5 -6 7 7 10 15 7 18 -3 3 -9 -2 -12 -12z"/>
<path d="M465 150 c3 -5 8 -10 11 -10 2 0 4 5 4 10 0 6 -5 10 -11 10 -5 0 -7
-4 -4 -10z"/>
<path d="M845 150 c3 -5 8 -10 11 -10 2 0 4 5 4 10 0 6 -5 10 -11 10 -5 0 -7
-4 -4 -10z"/>
</g>
</svg>
